<?xml version="1.0" encoding="utf-8"?>
<!-- Generator: Adobe Illustrator 20.1.0, SVG Export Plug-In . SVG Version: 6.00 Build 0)  -->
<svg version="1.1" xmlns="http://www.w3.org/2000/svg" xmlns:xlink="http://www.w3.org/1999/xlink" x="0px" y="0px"
	 viewBox="0 0 2800 2800" style="enable-background:new 0 0 2800 2800;" xml:space="preserve">
<g id="Layer_5">
	<g id="Layer_5_2_">
		<rect x="-103" y="-71.5" style="fill:#B5AAAB;" width="3006" height="2943"/>
	</g>
</g>
<g id="Capa_3">
	<g>
		<g>
			<path style="fill:#434C57;" d="M1244.6,913.2H453.7c-14.8,0-26.7-12-26.7-26.7V390.3c0-14.8,12-26.7,26.7-26.7h790.9
				c14.8,0,26.8,12,26.8,26.7v496.1C1271.3,901.2,1259.4,913.2,1244.6,913.2z"/>
			<rect x="482.7" y="411.3" style="fill:#7AA9C1;" width="732.9" height="454.1"/>
			<path style="fill:#343942;" d="M1237.3,982.3H461c-48.4,0-87.6-21.5-87.6-69.9v0c0,0,0,0,0,0h951.5v0
				C1324.9,960.8,1285.7,982.3,1237.3,982.3z"/>
			<path style="fill:#FFFFFF;" d="M913,952.7H785.2c-22.3,0-40.4-18.1-40.4-40.4v0h208.5v0C953.4,934.7,935.3,952.7,913,952.7z"/>
		</g>
		<g>
			<rect x="1465.3" y="753.2" style="fill:#434C57;" width="324.3" height="451.3"/>
			<rect x="1465.3" y="1204.5" style="fill:#343942;" width="324.3" height="78.1"/>
			<circle style="fill:#E5726F;" cx="1627.4" cy="934.5" r="124.6"/>
			<circle style="fill:#7AA9C1;" cx="1627.4" cy="934.5" r="48.1"/>
			<circle style="fill:#434C57;" cx="1627.4" cy="934.5" r="21.4"/>
			<circle style="fill:#FFFFFF;" cx="1763.2" cy="787.7" r="10.6"/>
			<circle style="fill:#FFFFFF;" cx="1491.7" cy="787.7" r="10.6"/>
			<circle style="fill:#FFFFFF;" cx="1763.2" cy="1177.4" r="10.6"/>
			<circle style="fill:#FFFFFF;" cx="1491.7" cy="1177.4" r="10.6"/>
			<path style="fill:#FFFFFF;" d="M1562.2,1253h-50.4c-5.2,0-9.5-4.3-9.5-9.5l0,0c0-5.2,4.3-9.5,9.5-9.5h50.4c5.2,0,9.5,4.3,9.5,9.5
				l0,0C1571.7,1248.7,1567.4,1253,1562.2,1253z"/>
			<path style="fill:#FFFFFF;" d="M1646.9,1253h-50.4c-5.2,0-9.5-4.3-9.5-9.5l0,0c0-5.2,4.3-9.5,9.5-9.5h50.4c5.2,0,9.5,4.3,9.5,9.5
				l0,0C1656.4,1248.7,1652.2,1253,1646.9,1253z"/>
		</g>
		<g>
			<rect x="421.1" y="1114" style="fill:#434C57;" width="371.5" height="743.9"/>
			<rect x="463" y="1155.7" style="fill:#343942;" width="289.4" height="37.7"/>
			<rect x="463" y="1398.6" style="fill:#343942;" width="289.4" height="37.7"/>
			<rect x="463" y="1455.9" style="fill:#343942;" width="289.4" height="37.7"/>
			<rect x="463" y="1271.4" style="fill:#343942;" width="289.4" height="106.4"/>
			<rect x="463" y="1536.3" style="fill:#343942;" width="289.4" height="264.9"/>
			<circle style="fill:#7AA9C1;" cx="502" cy="1582.1" r="18.2"/>
			<rect x="483.8" y="1634.7" style="fill:#434C57;" width="46.6" height="15.5"/>
			<rect x="561" y="1634.7" style="fill:#434C57;" width="46.6" height="15.5"/>
			<rect x="483.8" y="1681.4" style="fill:#434C57;" width="46.6" height="15.5"/>
			<rect x="561" y="1681.4" style="fill:#434C57;" width="46.6" height="15.5"/>
			<rect x="483.8" y="1728" style="fill:#434C57;" width="46.6" height="15.5"/>
			<rect x="561" y="1728" style="fill:#434C57;" width="46.6" height="15.5"/>
			<rect x="654.6" y="1564" style="fill:#434C57;" width="9.7" height="179.5"/>
			<rect x="677.5" y="1564" style="fill:#434C57;" width="9.7" height="179.5"/>
			<rect x="711.5" y="1201.7" style="fill:#E5726F;" width="40.8" height="12.3"/>
		</g>
		<g>
			<path style="fill:#7AA9C1;" d="M1199.9,1523.2h-117.6c-25.5,0-46.2-20.7-46.2-46.2v-304.8c0-25.5,20.7-46.2,46.2-46.2h117.6
				c25.5,0,46.2,20.7,46.2,46.2V1477C1246.1,1502.5,1225.4,1523.2,1199.9,1523.2z"/>
			<rect x="1066.7" y="1194.3" style="fill:#FFFFFF;" width="148.9" height="260.7"/>
			<circle style="fill:#434C57;" cx="1141.1" cy="1488.1" r="16"/>
			<path style="fill:#434C57;" d="M1156.3,1169.3h-30.4c-3.1,0-5.6-2.5-5.6-5.6l0,0c0-3.1,2.5-5.6,5.6-5.6h30.4
				c3.1,0,5.6,2.5,5.6,5.6l0,0C1161.9,1166.8,1159.4,1169.3,1156.3,1169.3z"/>
		</g>
		<g>
			<path style="fill:#E5726F;" d="M2239.7,318.2h-206c-10.5,0-18.9,8.5-18.9,18.9v276.3c0,13.8,11.2,24.9,24.9,24.9h222.3
				c13.8,0,24.9-11.2,24.9-24.9v-248L2239.7,318.2z"/>
			<rect x="2052.9" y="520.4" style="fill:#FFFFFF;" width="196" height="118"/>
			<path style="fill:#434C57;" d="M2219.1,554.9h-136.5c-4.1,0-7.5-3.4-7.5-7.5l0,0c0-4.1,3.4-7.5,7.5-7.5h136.5
				c4.1,0,7.5,3.4,7.5,7.5l0,0C2226.6,551.6,2223.3,554.9,2219.1,554.9z"/>
			<path style="fill:#434C57;" d="M2219.1,586.9h-136.5c-4.1,0-7.5-3.4-7.5-7.5l0,0c0-4.1,3.4-7.5,7.5-7.5h136.5
				c4.1,0,7.5,3.4,7.5,7.5l0,0C2226.6,583.5,2223.3,586.9,2219.1,586.9z"/>
			<path style="fill:#434C57;" d="M2219.1,618.8h-136.5c-4.1,0-7.5-3.4-7.5-7.5v0c0-4.1,3.4-7.5,7.5-7.5h136.5
				c4.1,0,7.5,3.4,7.5,7.5v0C2226.6,615.4,2223.3,618.8,2219.1,618.8z"/>
			<rect x="2045.3" y="318.2" style="fill:#434C57;" width="29.9" height="112"/>
		</g>
		<g>
			<path style="fill:#434C57;" d="M2389.8,1101h-315.9c-20.3,0-36.8-16.5-36.8-36.8V854.7c0-20.3,16.5-36.8,36.8-36.8h315.9
				c20.3,0,36.8,16.5,36.8,36.8v209.5C2426.6,1084.6,2410.1,1101,2389.8,1101z"/>
			<rect x="2081.3" y="760.5" style="fill:#FFFFFF;" width="301.2" height="317.6"/>
			<path style="fill:#7AA9C1;" d="M2403.3,804.5H2333c-12.9,0-23.3,10.4-23.3,23.3l-2.9,14.1h-240.1c-16.3,0-29.6,13.3-29.6,29.6
				v223.9c0,16.3,13.3,29.6,29.6,29.6H2397c16.3,0,29.6-13.3,29.6-29.6V907v-35.4v-43.7C2426.6,815,2416.2,804.5,2403.3,804.5z"/>
		</g>
		<path style="fill:#FFFFFF;" d="M1735.5,420.7c2.7-8.1,4.1-16.7,4.1-25.7c0-45.4-36.8-82.1-82.1-82.1c-42.3,0-77.1,31.9-81.6,73
			c-11.3-17.6-31.1-29.3-53.6-29.3c-35.2,0-63.7,28.5-63.7,63.7c0,0.8,0,1.7,0.1,2.5c-26.6,7.7-46.1,32.3-46.1,61.2v0
			c0,35,28.7,63.7,63.7,63.7h251.4c35,0,63.7-28.7,63.7-63.7v0C1791.2,451.6,1766.8,424.6,1735.5,420.7z"/>
		<g>
			<path style="fill:#FFFFFF;" d="M2342.5,1455h-655.5c-31.4,0-56.8,25.4-56.8,56.8v438.8c0,31.4,25.4,56.8,56.8,56.8h243v95.7
				h-49.8v20.8h49.8h180.9h49.8v-20.8h-49.8v-95.7h231.5c31.4,0,56.8-25.4,56.8-56.8v-438.8C2399.3,1480.4,2373.9,1455,2342.5,1455z
				"/>
			<path style="fill:#7AA9C1;" d="M2342.5,1455h-655.5c-31.4,0-56.8,25.4-56.8,56.8v397.7c0,1.2,1,2.2,2.2,2.2h764.6
				c1.2,0,2.2-1,2.2-2.2v-397.7C2399.3,1480.4,2373.9,1455,2342.5,1455z"/>
			<circle style="fill:#434C57;" cx="2014.8" cy="1955.2" r="16.8"/>
		</g>
		<path style="fill:#E5726F;" d="M1424.5,1472.1c-34.2,0-61.8,27.7-61.8,61.8s61.8,121.8,61.8,121.8s61.8-87.7,61.8-121.8
			S1458.6,1472.1,1424.5,1472.1z M1424.5,1563.6c-16.4,0-29.6-13.3-29.6-29.6s13.3-29.6,29.6-29.6s29.6,13.3,29.6,29.6
			S1440.8,1563.6,1424.5,1563.6z"/>
		<g>
			
				<rect x="1280.4" y="1820.8" transform="matrix(0.7071 -0.7071 0.7071 0.7071 -941.6591 1468.5481)" style="fill:#434C57;" width="42.8" height="100.3"/>
			
				<ellipse transform="matrix(0.7071 -0.7071 0.7071 0.7071 -901.0959 1361.0653)" style="fill:#434C57;" cx="1192.4" cy="1768.3" rx="125.7" ry="125.7"/>
			
				<ellipse transform="matrix(0.7071 -0.7071 0.7071 0.7071 -901.0959 1361.0653)" style="fill:#FFFFFF;" cx="1192.4" cy="1768.3" rx="87.8" ry="87.8"/>
			<path style="fill:#E5726F;" d="M1450.3,2019.4L1450.3,2019.4c-12.9,12.9-33.9,12.9-46.8,0l-113.2-113.2l46.8-46.8l113.2,113.2
				C1463.2,1985.5,1463.2,2006.5,1450.3,2019.4z"/>
		</g>
		<g>
			<path style="fill:#434C57;" d="M1656.4,2160.2L1656.4,2160.2c-24.4,0-44.4,20-44.4,44.4v124.3c0,24.4,20,44.4,44.4,44.4h0
				c24.4,0,44.4-20,44.4-44.4v-124.3C1700.8,2180.2,1680.9,2160.2,1656.4,2160.2z M1670.8,2328.9c0,7.8-6.6,14.4-14.4,14.4
				s-14.4-6.6-14.4-14.4v-124.3c0-7.8,6.6-14.4,14.4-14.4s14.4,6.6,14.4,14.4V2328.9z"/>
			<path style="fill:#E5726F;" d="M1675.4,2430.4h-37.9c-30.3,0-54.9-24.6-54.9-54.9v-99.3h147.6v99.3
				C1730.2,2405.8,1705.7,2430.4,1675.4,2430.4z"/>
			<path style="fill:#434C57;" d="M1677.5,2332c0-11.6-9.4-21.1-21.1-21.1c-11.6,0-21.1,9.4-21.1,21.1c0,8,4.5,15,11.1,18.5
				l-8.6,44.4h37.2l-8.6-44.4C1673,2346.9,1677.5,2340,1677.5,2332z"/>
		</g>
		<g>
			<circle style="fill:#E5726F;" cx="682.3" cy="2191.8" r="105"/>
			<polygon style="fill:#FFFFFF;" points="725.9,2191.8 651.5,2243 651.5,2140.6 725.9,2191.8 			"/>
		</g>
		<g>
			<g>
				<rect x="945.1" y="2300.4" style="fill:#7AA9C1;" width="299.8" height="186.7"/>
				<polygon style="fill:#598CA5;" points="1245,2487.1 945.1,2487.1 1095.1,2393.8 1095.1,2393.8 				"/>
				<polygon style="fill:#FFFFFF;" points="945.1,2106.6 945.1,2300.4 1095.1,2393.8 1245,2300.4 1245,2106.6 				"/>
			</g>
			<path style="fill:#434C57;" d="M1214.7,2153.1H975.4c-2,0-3.7-1.7-3.7-3.7l0,0c0-2,1.7-3.7,3.7-3.7h239.3c2,0,3.7,1.7,3.7,3.7
				l0,0C1218.4,2151.4,1216.8,2153.1,1214.7,2153.1z"/>
			<path style="fill:#434C57;" d="M1214.7,2179.9H975.4c-2,0-3.7-1.7-3.7-3.7l0,0c0-2,1.7-3.7,3.7-3.7h239.3c2,0,3.7,1.7,3.7,3.7
				l0,0C1218.4,2178.2,1216.8,2179.9,1214.7,2179.9z"/>
			<path style="fill:#434C57;" d="M1214.7,2206.7H975.4c-2,0-3.7-1.7-3.7-3.7l0,0c0-2,1.7-3.7,3.7-3.7h239.3c2,0,3.7,1.7,3.7,3.7
				l0,0C1218.4,2205,1216.8,2206.7,1214.7,2206.7z"/>
			<path style="fill:#434C57;" d="M1214.7,2233.5H975.4c-2,0-3.7-1.7-3.7-3.7l0,0c0-2,1.7-3.7,3.7-3.7h239.3c2,0,3.7,1.7,3.7,3.7
				l0,0C1218.4,2231.8,1216.8,2233.5,1214.7,2233.5z"/>
			<path style="fill:#434C57;" d="M1214.7,2260.3H975.4c-2,0-3.7-1.7-3.7-3.7l0,0c0-2,1.7-3.7,3.7-3.7h239.3c2,0,3.7,1.7,3.7,3.7
				l0,0C1218.4,2258.6,1216.8,2260.3,1214.7,2260.3z"/>
			<path style="fill:#434C57;" d="M1214.7,2287.1H975.4c-2,0-3.7-1.7-3.7-3.7l0,0c0-2,1.7-3.7,3.7-3.7h239.3c2,0,3.7,1.7,3.7,3.7
				l0,0C1218.4,2285.4,1216.8,2287.1,1214.7,2287.1z"/>
		</g>
	</g>
</g>
</svg>
